<?xml version="1.0" encoding="utf-8"?>
<!-- Generator: Adobe Illustrator 15.0.0, SVG Export Plug-In . SVG Version: 6.00 Build 0)  -->
<!DOCTYPE svg PUBLIC "-//W3C//DTD SVG 1.1//EN" "http://www.w3.org/Graphics/SVG/1.1/DTD/svg11.dtd">
<svg version="1.1" id="_x30_" xmlns="http://www.w3.org/2000/svg" xmlns:xlink="http://www.w3.org/1999/xlink" x="0px" y="0px"
	 width="779.527px" height="340.158px" viewBox="0 0 779.527 340.158" enable-background="new 0 0 779.527 340.158"
	 xml:space="preserve">
<g id="INSERT_26_">
	<g id="LINE">
		
			<line fill="none" stroke="#FF0000" stroke-width="1.7008" stroke-linecap="round" stroke-linejoin="round" stroke-miterlimit="10" x1="596.308" y1="150.452" x2="202.738" y2="150.452"/>
	</g>
	<g id="LINE_1_">
		
			<line fill="none" stroke="#FF0000" stroke-width="1.7008" stroke-linecap="round" stroke-linejoin="round" stroke-miterlimit="10" x1="596.311" y1="150.455" x2="596.311" y2="209.565"/>
	</g>
	<g id="ARC">
		
			<path fill="none" stroke="#FF0000" stroke-width="1.7008" stroke-linecap="round" stroke-linejoin="round" stroke-miterlimit="10" d="
			M596.311,150.455"/>
	</g>
	<g id="ARC_1_">
		
			<path fill="none" stroke="#006AD5" stroke-width="1.7008" stroke-linecap="round" stroke-linejoin="round" stroke-miterlimit="10" d="
			M596.308,255.274"/>
	</g>
	<g id="LINE_2_">
		
			<line fill="none" stroke="#FF0000" stroke-width="1.7008" stroke-linecap="round" stroke-linejoin="round" stroke-miterlimit="10" x1="615.76" y1="167.383" x2="596.311" y2="167.383"/>
	</g>
	<g id="LINE_3_">
		
			<line fill="none" stroke="#FF0000" stroke-width="1.7008" stroke-linecap="round" stroke-linejoin="round" stroke-miterlimit="10" x1="615.76" y1="209.565" x2="596.311" y2="209.565"/>
	</g>
	<g id="INSERT">
		<g id="HATCH">
			<polygon fill-rule="evenodd" clip-rule="evenodd" fill="#FF0000" points="465.353,172.866 461.422,172.863 465.387,178.841 
				469.213,172.868 465.353,172.866 			"/>
		</g>
		<g id="LINE_4_">
			
				<line fill="none" stroke="#FF0000" stroke-width="1.7008" stroke-linecap="round" stroke-linejoin="round" stroke-miterlimit="10" x1="465.353" y1="167.381" x2="465.353" y2="172.866"/>
		</g>
		<g id="LINE_5_">
			
				<line fill="none" stroke="#FF0000" stroke-width="1.7008" stroke-linecap="round" stroke-linejoin="round" stroke-miterlimit="10" x1="465.348" y1="155.378" x2="465.348" y2="150.452"/>
		</g>
		<g id="LINE_6_">
			
				<line fill="none" stroke="#FF0000" stroke-width="1.7008" stroke-linecap="round" stroke-linejoin="round" stroke-miterlimit="10" x1="469.278" y1="155.38" x2="461.418" y2="155.376"/>
		</g>
		<g id="LINE_7_">
			
				<line fill="none" stroke="#FF0000" stroke-width="1.7008" stroke-linecap="round" stroke-linejoin="round" stroke-miterlimit="10" x1="461.418" y1="155.376" x2="469.382" y2="167.383"/>
		</g>
		<g id="LINE_8_">
			
				<line fill="none" stroke="#FF0000" stroke-width="1.7008" stroke-linecap="round" stroke-linejoin="round" stroke-miterlimit="10" x1="469.382" y1="167.383" x2="461.521" y2="167.379"/>
		</g>
		<g id="LINE_9_">
			
				<line fill="none" stroke="#FF0000" stroke-width="1.7008" stroke-linecap="round" stroke-linejoin="round" stroke-miterlimit="10" x1="461.521" y1="167.379" x2="469.278" y2="155.271"/>
		</g>
		<g id="LINE_10_">
			
				<line fill="none" stroke="#FF0000" stroke-width="1.7008" stroke-linecap="round" stroke-linejoin="round" stroke-miterlimit="10" x1="469.283" y1="172.868" x2="461.423" y2="172.864"/>
		</g>
		<g id="LINE_11_">
			
				<line fill="none" stroke="#FF0000" stroke-width="1.7008" stroke-linecap="round" stroke-linejoin="round" stroke-miterlimit="10" x1="461.423" y1="172.864" x2="465.387" y2="178.841"/>
		</g>
		<g id="LINE_12_">
			
				<line fill="none" stroke="#FF0000" stroke-width="1.7008" stroke-linecap="round" stroke-linejoin="round" stroke-miterlimit="10" x1="465.387" y1="178.841" x2="469.283" y2="172.759"/>
		</g>
	</g>
	<g id="INSERT_1_">
		<g id="WIPEOUT">
			<polygon fill="#FFFFFF" points="444.2,152.593 444.2,148.311 444.2,148.311 436.209,150.452 436.209,150.452 			"/>
		</g>
		<g id="LINE_13_">
			
				<line fill="none" stroke="#FF0000" stroke-width="1.7008" stroke-linecap="round" stroke-linejoin="round" stroke-miterlimit="10" x1="444.2" y1="148.311" x2="436.209" y2="150.452"/>
		</g>
		<g id="LINE_14_">
			
				<line fill="none" stroke="#FF0000" stroke-width="1.7008" stroke-linecap="round" stroke-linejoin="round" stroke-miterlimit="10" x1="436.209" y1="150.452" x2="444.2" y2="152.593"/>
		</g>
		<g id="LINE_15_">
			
				<line fill="none" stroke="#FF0000" stroke-width="1.7008" stroke-linecap="round" stroke-linejoin="round" stroke-miterlimit="10" x1="444.2" y1="152.593" x2="444.2" y2="148.311"/>
		</g>
	</g>
	<g id="INSERT_2_">
		<g id="WIPEOUT_1_">
			<polygon fill="#FFFFFF" points="335.613,152.593 343.604,150.452 343.604,150.452 335.613,148.311 335.613,148.311 			"/>
		</g>
		<g id="LINE_16_">
			
				<line fill="none" stroke="#FF0000" stroke-width="1.7008" stroke-linecap="round" stroke-linejoin="round" stroke-miterlimit="10" x1="335.613" y1="148.311" x2="343.604" y2="150.452"/>
		</g>
		<g id="LINE_17_">
			
				<line fill="none" stroke="#FF0000" stroke-width="1.7008" stroke-linecap="round" stroke-linejoin="round" stroke-miterlimit="10" x1="343.604" y1="150.452" x2="335.613" y2="152.593"/>
		</g>
		<g id="LINE_18_">
			
				<line fill="none" stroke="#FF0000" stroke-width="1.7008" stroke-linecap="round" stroke-linejoin="round" stroke-miterlimit="10" x1="335.613" y1="152.593" x2="335.613" y2="148.311"/>
		</g>
	</g>
	<g id="INSERT_3_">
		<g id="HATCH_1_">
			<polygon fill-rule="evenodd" clip-rule="evenodd" points="202.738,150.452 193.253,144.975 193.253,155.929 202.738,150.452 			
				"/>
		</g>
		<g id="LINE_19_">
			
				<line fill="none" stroke="#0000FF" stroke-width="1.4173" stroke-linecap="round" stroke-linejoin="round" stroke-miterlimit="10" x1="193.253" y1="155.928" x2="193.253" y2="144.976"/>
		</g>
		<g id="LINE_20_">
			
				<line fill="none" stroke="#0000FF" stroke-width="1.4173" stroke-linecap="round" stroke-linejoin="round" stroke-miterlimit="10" x1="193.253" y1="144.976" x2="202.738" y2="150.452"/>
		</g>
		<g id="LINE_21_">
			
				<line fill="none" stroke="#0000FF" stroke-width="1.4173" stroke-linecap="round" stroke-linejoin="round" stroke-miterlimit="10" x1="202.738" y1="150.452" x2="193.253" y2="155.928"/>
		</g>
	</g>
	<g id="INSERT_4_">
		<g id="HATCH_2_">
			<path fill-rule="evenodd" clip-rule="evenodd" d="M282.958,150.452h-2.738l2.372,1.369L282.958,150.452L282.958,150.452z
				 M282.592,149.083l-2.372,1.369h2.738L282.592,149.083L282.592,149.083z M280.22,150.452l-2.371-1.369l-0.366,1.369H280.22
				L280.22,150.452z M280.22,150.452h-2.737l0.366,1.369L280.22,150.452L280.22,150.452z"/>
		</g>
		<g id="WIPEOUT_2_">
			<polygon fill="#FFFFFF" points="270.735,155.928 270.735,144.976 270.735,144.976 267.122,144.976 267.122,144.976 
				267.122,155.928 267.122,155.928 			"/>
		</g>
		<g id="WIPEOUT_3_">
			<polygon fill="#FFFFFF" points="293.318,155.928 293.318,144.976 293.318,144.976 289.705,144.976 289.705,144.976 
				289.705,155.928 289.705,155.928 			"/>
		</g>
		<g id="WIPEOUT_4_">
			<polygon fill="#FFFFFF" points="280.22,150.452 270.735,144.976 270.735,144.976 270.735,155.928 270.735,155.928 			"/>
		</g>
		<g id="WIPEOUT_5_">
			<polygon fill="#FFFFFF" points="289.705,155.928 289.705,144.976 289.705,144.976 280.22,150.452 280.22,150.452 			"/>
		</g>
		<g id="LINE_22_">
			
				<line fill="none" stroke="#FF0000" stroke-width="1.7008" stroke-linecap="round" stroke-linejoin="round" stroke-miterlimit="10" x1="289.705" y1="155.928" x2="289.705" y2="144.976"/>
		</g>
		<g id="LINE_23_">
			
				<line fill="none" stroke="#FF0000" stroke-width="1.7008" stroke-linecap="round" stroke-linejoin="round" stroke-miterlimit="10" x1="289.705" y1="144.976" x2="280.22" y2="150.452"/>
		</g>
		<g id="LINE_24_">
			
				<line fill="none" stroke="#FF0000" stroke-width="1.7008" stroke-linecap="round" stroke-linejoin="round" stroke-miterlimit="10" x1="280.22" y1="150.452" x2="289.705" y2="155.928"/>
		</g>
		<g id="LINE_25_">
			
				<line fill="none" stroke="#FF0000" stroke-width="1.7008" stroke-linecap="round" stroke-linejoin="round" stroke-miterlimit="10" x1="270.735" y1="155.928" x2="270.735" y2="144.976"/>
		</g>
		<g id="LINE_26_">
			
				<line fill="none" stroke="#FF0000" stroke-width="1.7008" stroke-linecap="round" stroke-linejoin="round" stroke-miterlimit="10" x1="270.735" y1="144.976" x2="280.22" y2="150.452"/>
		</g>
		<g id="LINE_27_">
			
				<line fill="none" stroke="#FF0000" stroke-width="1.7008" stroke-linecap="round" stroke-linejoin="round" stroke-miterlimit="10" x1="280.22" y1="150.452" x2="270.735" y2="155.928"/>
		</g>
		<g id="LINE_28_">
			
				<line fill="none" stroke="#FF0000" stroke-width="1.7008" stroke-linecap="round" stroke-linejoin="round" stroke-miterlimit="10" x1="267.122" y1="144.976" x2="267.122" y2="155.928"/>
		</g>
		<g id="LINE_29_">
			
				<line fill="none" stroke="#FF0000" stroke-width="1.7008" stroke-linecap="round" stroke-linejoin="round" stroke-miterlimit="10" x1="293.318" y1="144.976" x2="293.318" y2="155.928"/>
		</g>
		<g id="CIRCLE">
			
				<path fill="none" stroke="#FF0000" stroke-width="1.7008" stroke-linecap="round" stroke-linejoin="round" stroke-miterlimit="10" d="
				M282.958,150.452c0-1.512-1.226-2.738-2.738-2.738c-1.512,0-2.738,1.226-2.738,2.738s1.226,2.738,2.738,2.738
				C281.732,153.19,282.958,151.964,282.958,150.452L282.958,150.452z"/>
		</g>
		<g id="HATCH_3_">
			<path fill-rule="evenodd" clip-rule="evenodd" fill="#FF0000" d="M280.22,150.452l2.372-1.369l-1.663-1.275l-2.078,0.272
				l-1.002,1.002L280.22,150.452L280.22,150.452z M277.849,151.82l1.663,1.277l2.078-0.275l1.002-1.002l-2.372-1.369L277.849,151.82
				L277.849,151.82z M280.22,150.452h2.738l-0.366-1.369L280.22,150.452L280.22,150.452z M280.22,150.452h-2.737l0.366,1.369
				L280.22,150.452L280.22,150.452z M280.22,150.452l-2.371-1.369l-0.366,1.369H280.22L280.22,150.452z M282.958,150.452h-2.738
				l2.372,1.369L282.958,150.452L282.958,150.452z"/>
		</g>
	</g>
	<g id="INSERT_5_">
		<g id="CIRCLE_1_">
			
				<path fill="none" stroke="#FF0000" stroke-width="1.7008" stroke-linecap="round" stroke-linejoin="round" stroke-miterlimit="10" d="
				M325.744,119.856c0-6.229-5.05-11.279-11.279-11.279s-11.278,5.05-11.278,11.279s5.049,11.278,11.278,11.278
				S325.744,126.085,325.744,119.856L325.744,119.856z"/>
		</g>
		<g id="LINE_30_">
			
				<line fill="none" stroke="#FF0000" stroke-width="1.7008" stroke-linecap="round" stroke-linejoin="round" stroke-miterlimit="10" x1="314.465" y1="131.224" x2="314.465" y2="150.453"/>
		</g>
		<g id="MTEXT">
			<text transform="matrix(0.9321 0 -0.2588 0.9659 307.3828 123.02)" font-family="'ISOCPEUR'" font-size="10.7321">РG</text>
		</g>
	</g>
	<g id="INSERT_6_">
		<g id="HATCH_4_">
			<path fill-rule="evenodd" clip-rule="evenodd" d="M502.332,150.452h-2.738l2.371,1.369L502.332,150.452L502.332,150.452z
				 M501.965,149.083l-2.371,1.369h2.738L501.965,149.083L501.965,149.083z M499.594,150.452l-2.371-1.369l-0.367,1.369H499.594
				L499.594,150.452z M499.594,150.452h-2.738l0.367,1.369L499.594,150.452L499.594,150.452z"/>
		</g>
		<g id="WIPEOUT_6_">
			<polygon fill="#FFFFFF" points="490.108,155.928 490.108,144.976 490.108,144.976 486.496,144.976 486.496,144.976 
				486.496,155.928 486.496,155.928 			"/>
		</g>
		<g id="WIPEOUT_7_">
			<polygon fill="#FFFFFF" points="512.691,155.928 512.691,144.976 512.691,144.976 509.078,144.976 509.078,144.976 
				509.078,155.928 509.078,155.928 			"/>
		</g>
		<g id="WIPEOUT_8_">
			<polygon fill="#FFFFFF" points="499.594,150.452 490.108,144.976 490.108,144.976 490.108,155.928 490.108,155.928 			"/>
		</g>
		<g id="WIPEOUT_9_">
			<polygon fill="#FFFFFF" points="509.078,155.928 509.078,144.976 509.078,144.976 499.594,150.452 499.594,150.452 			"/>
		</g>
		<g id="LINE_31_">
			
				<line fill="none" stroke="#FF0000" stroke-width="1.7008" stroke-linecap="round" stroke-linejoin="round" stroke-miterlimit="10" x1="509.078" y1="155.928" x2="509.078" y2="144.976"/>
		</g>
		<g id="LINE_32_">
			
				<line fill="none" stroke="#FF0000" stroke-width="1.7008" stroke-linecap="round" stroke-linejoin="round" stroke-miterlimit="10" x1="509.078" y1="144.976" x2="499.594" y2="150.452"/>
		</g>
		<g id="LINE_33_">
			
				<line fill="none" stroke="#FF0000" stroke-width="1.7008" stroke-linecap="round" stroke-linejoin="round" stroke-miterlimit="10" x1="499.594" y1="150.452" x2="509.078" y2="155.928"/>
		</g>
		<g id="LINE_34_">
			
				<line fill="none" stroke="#FF0000" stroke-width="1.7008" stroke-linecap="round" stroke-linejoin="round" stroke-miterlimit="10" x1="490.108" y1="155.928" x2="490.108" y2="144.976"/>
		</g>
		<g id="LINE_35_">
			
				<line fill="none" stroke="#FF0000" stroke-width="1.7008" stroke-linecap="round" stroke-linejoin="round" stroke-miterlimit="10" x1="490.108" y1="144.976" x2="499.594" y2="150.452"/>
		</g>
		<g id="LINE_36_">
			
				<line fill="none" stroke="#FF0000" stroke-width="1.7008" stroke-linecap="round" stroke-linejoin="round" stroke-miterlimit="10" x1="499.594" y1="150.452" x2="490.108" y2="155.928"/>
		</g>
		<g id="LINE_37_">
			
				<line fill="none" stroke="#FF0000" stroke-width="1.7008" stroke-linecap="round" stroke-linejoin="round" stroke-miterlimit="10" x1="486.496" y1="144.976" x2="486.496" y2="155.928"/>
		</g>
		<g id="LINE_38_">
			
				<line fill="none" stroke="#FF0000" stroke-width="1.7008" stroke-linecap="round" stroke-linejoin="round" stroke-miterlimit="10" x1="512.691" y1="144.976" x2="512.691" y2="155.928"/>
		</g>
		<g id="CIRCLE_2_">
			
				<path fill="none" stroke="#FF0000" stroke-width="1.7008" stroke-linecap="round" stroke-linejoin="round" stroke-miterlimit="10" d="
				M502.332,150.452c0-1.512-1.227-2.738-2.738-2.738c-1.513,0-2.738,1.226-2.738,2.738s1.226,2.738,2.738,2.738
				C501.105,153.19,502.332,151.964,502.332,150.452L502.332,150.452z"/>
		</g>
		<g id="HATCH_5_">
			<path fill-rule="evenodd" clip-rule="evenodd" fill="#FF0000" d="M499.594,150.452l2.371-1.369l-1.662-1.275l-2.078,0.272
				l-1.002,1.002L499.594,150.452L499.594,150.452z M497.223,151.82l1.662,1.277l2.077-0.275l1.003-1.002l-2.371-1.369
				L497.223,151.82L497.223,151.82z M499.594,150.452h2.738l-0.367-1.369L499.594,150.452L499.594,150.452z M499.594,150.452h-2.738
				l0.367,1.369L499.594,150.452L499.594,150.452z M499.594,150.452l-2.371-1.369l-0.367,1.369H499.594L499.594,150.452z
				 M502.332,150.452h-2.738l2.371,1.369L502.332,150.452L502.332,150.452z"/>
		</g>
	</g>
	<g id="INSERT_7_">
		<g id="CIRCLE_3_">
			
				<path fill="none" stroke="#FF0000" stroke-width="1.7008" stroke-linecap="round" stroke-linejoin="round" stroke-miterlimit="10" d="
				M250.204,119.855c0-6.229-5.049-11.279-11.278-11.279s-11.279,5.05-11.279,11.279s5.05,11.279,11.279,11.279
				S250.204,126.084,250.204,119.855L250.204,119.855z"/>
		</g>
		<g id="LINE_39_">
			
				<line fill="none" stroke="#FF0000" stroke-width="1.7008" stroke-linecap="round" stroke-linejoin="round" stroke-miterlimit="10" x1="238.925" y1="131.223" x2="238.925" y2="150.452"/>
		</g>
		<g id="MTEXT_1_">
			<text transform="matrix(0.9321 0 -0.2588 0.9659 231.8423 123.0181)" font-family="'ISOCPEUR'" font-size="10.7321">РG</text>
		</g>
	</g>
	<g id="INSERT_8_">
		<g id="CIRCLE_4_">
			
				<path fill="none" stroke="#FF0000" stroke-width="1.7008" stroke-linecap="round" stroke-linejoin="round" stroke-miterlimit="10" d="
				M476.627,119.855c0-6.229-5.05-11.279-11.279-11.279c-6.229,0-11.278,5.05-11.278,11.279s5.05,11.279,11.278,11.279
				C471.577,131.134,476.627,126.084,476.627,119.855L476.627,119.855z"/>
		</g>
		<g id="LINE_40_">
			
				<line fill="none" stroke="#FF0000" stroke-width="1.7008" stroke-linecap="round" stroke-linejoin="round" stroke-miterlimit="10" x1="465.348" y1="131.223" x2="465.348" y2="150.452"/>
		</g>
		<g id="MTEXT_2_">
			<text transform="matrix(0.9321 0 -0.2588 0.9659 458.4639 123.0181)" font-family="'ISOCPEUR'" font-size="10.7321">TG</text>
		</g>
	</g>
	<g id="INSERT_14_">
		<g id="LINE_41_">
			
				<line fill="none" stroke="#000000" stroke-width="0.5669" stroke-linecap="round" stroke-linejoin="round" stroke-miterlimit="10" x1="356.762" y1="108.667" x2="356.762" y2="96.46"/>
		</g>
		<g id="LINE_42_">
			
				<line fill="none" stroke="#000000" stroke-width="0.5669" stroke-linecap="round" stroke-linejoin="round" stroke-miterlimit="10" x1="356.765" y1="96.457" x2="375.231" y2="96.457"/>
		</g>
		<g id="LINE_43_">
			
				<line fill="none" stroke="#000000" stroke-width="0.5669" stroke-linecap="round" stroke-linejoin="round" stroke-miterlimit="10" x1="421.897" y1="108.578" x2="421.897" y2="96.46"/>
		</g>
		<g id="LINE_44_">
			
				<line fill="none" stroke="#000000" stroke-width="0.5669" stroke-linecap="round" stroke-linejoin="round" stroke-miterlimit="10" x1="421.895" y1="96.457" x2="403.428" y2="96.457"/>
		</g>
		<g id="ARC_2_">
			
				<path fill="none" stroke="#FF0000" stroke-width="1.7008" stroke-linecap="round" stroke-linejoin="round" stroke-miterlimit="10" d="
				M421.897,96.46"/>
		</g>
		<g id="LINE_45_">
			
				<line fill="none" stroke="#FF0000" stroke-width="1.7008" stroke-linecap="round" stroke-linejoin="round" stroke-miterlimit="10" x1="389.33" y1="139.173" x2="389.33" y2="131.134"/>
		</g>
		<g id="CIRCLE_5_">
			
				<path fill="none" stroke="#FF0000" stroke-width="1.7008" stroke-linecap="round" stroke-linejoin="round" stroke-miterlimit="10" d="
				M400.608,119.855c0-6.229-5.05-11.279-11.279-11.279s-11.279,5.05-11.279,11.279s5.05,11.279,11.279,11.279
				S400.608,126.084,400.608,119.855L400.608,119.855z"/>
		</g>
		<g id="LINE_46_">
			
				<line fill="none" stroke="#000000" stroke-width="0.5669" stroke-linecap="round" stroke-linejoin="round" stroke-miterlimit="10" x1="389.33" y1="108.576" x2="389.33" y2="102.801"/>
		</g>
		<g id="ARC_3_">
			
				<path fill="none" stroke="#FF0000" stroke-width="1.7008" stroke-linecap="round" stroke-linejoin="round" stroke-miterlimit="10" d="
				M421.897,96.46"/>
		</g>
		<g id="INSERT_9_">
			<g id="LINE_47_">
				
					<line fill="none" stroke="#FF0000" stroke-width="1.7008" stroke-linecap="round" stroke-linejoin="round" stroke-miterlimit="10" x1="403.428" y1="102.801" x2="375.231" y2="102.801"/>
			</g>
			<g id="LINE_48_">
				
					<line fill="none" stroke="#FF0000" stroke-width="1.7008" stroke-linecap="round" stroke-linejoin="round" stroke-miterlimit="10" x1="375.231" y1="102.801" x2="375.231" y2="85.883"/>
			</g>
			<g id="LINE_49_">
				
					<line fill="none" stroke="#FF0000" stroke-width="1.7008" stroke-linecap="round" stroke-linejoin="round" stroke-miterlimit="10" x1="375.231" y1="85.883" x2="403.428" y2="85.883"/>
			</g>
			<g id="LINE_50_">
				
					<line fill="none" stroke="#FF0000" stroke-width="1.7008" stroke-linecap="round" stroke-linejoin="round" stroke-miterlimit="10" x1="403.428" y1="85.883" x2="403.428" y2="102.801"/>
			</g>
		</g>
		<g id="INSERT_10_">
			<g id="CIRCLE_6_">
				
					<path fill="none" stroke="#FF0000" stroke-width="1.7008" stroke-linecap="round" stroke-linejoin="round" stroke-miterlimit="10" d="
					M433.176,119.856c0-6.229-5.049-11.279-11.278-11.279s-11.278,5.05-11.278,11.279s5.049,11.278,11.278,11.278
					S433.176,126.085,433.176,119.856L433.176,119.856z"/>
			</g>
			<g id="LINE_51_">
				
					<line fill="none" stroke="#FF0000" stroke-width="1.7008" stroke-linecap="round" stroke-linejoin="round" stroke-miterlimit="10" x1="421.897" y1="131.135" x2="421.897" y2="150.452"/>
			</g>
			<g id="MTEXT_3_">
				<text transform="matrix(0.9321 0 -0.2588 0.9659 413.416 123.02)" font-family="'ISOCPEUR'" font-size="10.7321">ТE1</text>
			</g>
		</g>
		<g id="INSERT_11_">
			<g id="LINE_52_">
				
					<line fill="none" stroke="#FF0000" stroke-width="1.7008" stroke-linecap="round" stroke-linejoin="round" stroke-miterlimit="10" x1="356.762" y1="131.224" x2="356.762" y2="150.452"/>
			</g>
			<g id="CIRCLE_7_">
				
					<path fill="none" stroke="#FF0000" stroke-width="1.7008" stroke-linecap="round" stroke-linejoin="round" stroke-miterlimit="10" d="
					M368.041,119.945c0-6.229-5.05-11.279-11.279-11.279s-11.279,5.05-11.279,11.279s5.05,11.278,11.279,11.278
					S368.041,126.174,368.041,119.945L368.041,119.945z"/>
			</g>
			<g id="MTEXT_4_">
				<text transform="matrix(0.9321 0 -0.2588 0.9659 348.2803 123.1089)" font-family="'ISOCPEUR'" font-size="10.7321">РE1</text>
			</g>
		</g>
		<g id="INSERT_13_">
			<g id="INSERT_12_">
				<g id="WIPEOUT_10_">
					<polygon fill="#FFFFFF" points="398.409,143.761 395.24,140.846 400.608,150.452 					"/>
				</g>
				<g id="WIPEOUT_11_">
					<polygon fill="#FFFFFF" points="400.608,150.452 395.24,140.846 400.154,153.618 					"/>
				</g>
				<g id="WIPEOUT_12_">
					<polygon fill="#FFFFFF" points="395.24,140.846 378.051,150.452 400.154,153.618 					"/>
				</g>
				<g id="WIPEOUT_13_">
					<polygon fill="#FFFFFF" points="400.154,153.618 378.051,150.452 396.165,159.423 					"/>
				</g>
			</g>
			<g id="CIRCLE_8_">
				
					<path fill="none" stroke="#FF0000" stroke-width="1.7008" stroke-linecap="round" stroke-linejoin="round" stroke-miterlimit="10" d="
					M400.608,150.452c0-6.229-5.05-11.279-11.279-11.279s-11.279,5.05-11.279,11.279s5.05,11.279,11.279,11.279
					S400.608,156.681,400.608,150.452L400.608,150.452z"/>
			</g>
			<g id="LINE_53_">
				
					<path fill="none" stroke="#FF0000" stroke-width="1.7008" stroke-linecap="round" stroke-linejoin="round" stroke-miterlimit="10" d="
					M398.362,150"/>
			</g>
			<g id="LINE_54_">
				
					<line fill="none" stroke="#FF0000" stroke-width="1.7008" stroke-linecap="round" stroke-linejoin="round" stroke-miterlimit="10" x1="380.296" y1="150" x2="380.271" y2="150"/>
			</g>
			<g id="LINE_55_">
				
					<line fill="none" stroke="#FF0000" stroke-width="1.7008" stroke-linecap="round" stroke-linejoin="round" stroke-miterlimit="10" x1="378.051" y1="150.452" x2="396.912" y2="142.102"/>
			</g>
			<g id="LINE_56_">
				
					<line fill="none" stroke="#FF0000" stroke-width="1.7008" stroke-linecap="round" stroke-linejoin="round" stroke-miterlimit="10" x1="378.051" y1="150.452" x2="396.912" y2="158.802"/>
			</g>
		</g>
		<g id="MTEXT_5_">
			<text transform="matrix(0.9321 0 -0.2588 0.9659 381.5679 123.0181)" font-family="'ISOCPEUR'" font-size="10.7321">GE1</text>
		</g>
		<g id="MTEXT_6_">
			<text transform="matrix(0.9321 0 -0.2588 0.9659 378.7964 97.5054)" font-family="'ISOCPEUR'" font-size="10.7321">М121</text>
		</g>
	</g>
	<g id="INSERT_15_">
		<g id="CIRCLE_9_">
			
				<path fill="none" stroke="#FF0000" stroke-width="1.7008" stroke-linecap="round" stroke-linejoin="round" stroke-miterlimit="10" d="
				M552.167,119.855c0-6.229-5.05-11.279-11.278-11.279c-6.229,0-11.279,5.05-11.279,11.279s5.05,11.279,11.279,11.279
				C547.117,131.134,552.167,126.084,552.167,119.855L552.167,119.855z"/>
		</g>
		<g id="LINE_57_">
			
				<line fill="none" stroke="#FF0000" stroke-width="1.7008" stroke-linecap="round" stroke-linejoin="round" stroke-miterlimit="10" x1="540.889" y1="131.223" x2="540.889" y2="150.452"/>
		</g>
		<g id="MTEXT_7_">
			<text transform="matrix(0.9321 0 -0.2588 0.9659 533.8057 123.0181)" font-family="'ISOCPEUR'" font-size="10.7321">РG</text>
		</g>
	</g>
	<g id="INSERT_18_">
		<g id="LINE_58_">
			
				<line fill="none" stroke="#0000FF" stroke-width="0.4252" stroke-linecap="round" stroke-linejoin="round" stroke-miterlimit="10" stroke-dasharray="11.2787,5.6393" x1="258.662" y1="210.793" x2="258.663" y2="90.113"/>
		</g>
		<g id="INSERT_16_">
			<g id="HATCH_6_">
				<polygon fill-rule="evenodd" clip-rule="evenodd" points="272.938,90.112 261.042,88.545 262.232,90.112 261.042,91.679 
					272.938,90.112 				"/>
			</g>
			<g id="LINE_59_">
				
					<line fill="none" stroke="#0000FF" stroke-width="0.4252" stroke-linecap="round" stroke-linejoin="round" stroke-miterlimit="10" stroke-dasharray="11.2787,5.6393" x1="272.938" y1="90.113" x2="258.663" y2="90.113"/>
			</g>
			<g id="LINE_60_">
				
					<line fill="none" stroke="#0000FF" stroke-width="0.4252" stroke-linecap="round" stroke-linejoin="round" stroke-miterlimit="10" stroke-dasharray="11.2787,5.6393" x1="272.938" y1="90.113" x2="261.042" y2="91.679"/>
			</g>
			<g id="LINE_61_">
				
					<line fill="none" stroke="#0000FF" stroke-width="0.4252" stroke-linecap="round" stroke-linejoin="round" stroke-miterlimit="10" stroke-dasharray="11.2787,5.6393" x1="261.042" y1="91.679" x2="262.232" y2="90.113"/>
			</g>
			<g id="LINE_62_">
				
					<line fill="none" stroke="#0000FF" stroke-width="0.4252" stroke-linecap="round" stroke-linejoin="round" stroke-miterlimit="10" stroke-dasharray="11.2787,5.6393" x1="262.232" y1="90.113" x2="261.042" y2="88.547"/>
			</g>
			<g id="LINE_63_">
				
					<line fill="none" stroke="#0000FF" stroke-width="0.4252" stroke-linecap="round" stroke-linejoin="round" stroke-miterlimit="10" stroke-dasharray="11.2787,5.6393" x1="261.042" y1="88.547" x2="272.938" y2="90.113"/>
			</g>
		</g>
		<g id="INSERT_17_">
			<g id="HATCH_7_">
				<polygon fill-rule="evenodd" clip-rule="evenodd" points="261.041,212.357 272.937,210.794 261.041,209.227 262.23,210.794 
					261.041,212.357 				"/>
			</g>
			<g id="LINE_64_">
				
					<line fill="none" stroke="#0000FF" stroke-width="0.4252" stroke-linecap="round" stroke-linejoin="round" stroke-miterlimit="10" stroke-dasharray="11.2787,5.6393" x1="272.937" y1="210.793" x2="258.662" y2="210.793"/>
			</g>
			<g id="LINE_65_">
				
					<line fill="none" stroke="#0000FF" stroke-width="0.4252" stroke-linecap="round" stroke-linejoin="round" stroke-miterlimit="10" stroke-dasharray="11.2787,5.6393" x1="272.937" y1="210.793" x2="261.041" y2="212.358"/>
			</g>
			<g id="LINE_66_">
				
					<line fill="none" stroke="#0000FF" stroke-width="0.4252" stroke-linecap="round" stroke-linejoin="round" stroke-miterlimit="10" stroke-dasharray="11.2787,5.6393" x1="261.041" y1="212.358" x2="262.231" y2="210.793"/>
			</g>
			<g id="LINE_67_">
				
					<line fill="none" stroke="#0000FF" stroke-width="0.4252" stroke-linecap="round" stroke-linejoin="round" stroke-miterlimit="10" stroke-dasharray="11.2787,5.6393" x1="262.231" y1="210.793" x2="261.041" y2="209.227"/>
			</g>
			<g id="LINE_68_">
				
					<line fill="none" stroke="#0000FF" stroke-width="0.4252" stroke-linecap="round" stroke-linejoin="round" stroke-miterlimit="10" stroke-dasharray="11.2787,5.6393" x1="261.041" y1="209.227" x2="272.937" y2="210.793"/>
			</g>
		</g>
	</g>
	<g id="INSERT_21_">
		<g id="LINE_69_">
			
				<line fill="none" stroke="#0000FF" stroke-width="0.4252" stroke-linecap="round" stroke-linejoin="round" stroke-miterlimit="10" stroke-dasharray="11.2787,5.6393" x1="521.151" y1="210.793" x2="521.15" y2="90.113"/>
		</g>
		<g id="INSERT_19_">
			<g id="HATCH_8_">
				<polygon fill-rule="evenodd" clip-rule="evenodd" points="517.581,90.112 518.771,88.545 506.875,90.112 518.771,91.679 
					517.581,90.112 				"/>
			</g>
			<g id="LINE_70_">
				
					<line fill="none" stroke="#0000FF" stroke-width="0.4252" stroke-linecap="round" stroke-linejoin="round" stroke-miterlimit="10" stroke-dasharray="11.2787,5.6393" x1="506.876" y1="90.113" x2="521.15" y2="90.113"/>
			</g>
			<g id="LINE_71_">
				
					<line fill="none" stroke="#0000FF" stroke-width="0.4252" stroke-linecap="round" stroke-linejoin="round" stroke-miterlimit="10" stroke-dasharray="11.2787,5.6393" x1="506.876" y1="90.113" x2="518.771" y2="91.679"/>
			</g>
			<g id="LINE_72_">
				
					<line fill="none" stroke="#0000FF" stroke-width="0.4252" stroke-linecap="round" stroke-linejoin="round" stroke-miterlimit="10" stroke-dasharray="11.2787,5.6393" x1="518.771" y1="91.679" x2="517.582" y2="90.113"/>
			</g>
			<g id="LINE_73_">
				
					<line fill="none" stroke="#0000FF" stroke-width="0.4252" stroke-linecap="round" stroke-linejoin="round" stroke-miterlimit="10" stroke-dasharray="11.2787,5.6393" x1="517.582" y1="90.113" x2="518.771" y2="88.547"/>
			</g>
			<g id="LINE_74_">
				
					<line fill="none" stroke="#0000FF" stroke-width="0.4252" stroke-linecap="round" stroke-linejoin="round" stroke-miterlimit="10" stroke-dasharray="11.2787,5.6393" x1="518.771" y1="88.547" x2="506.876" y2="90.113"/>
			</g>
		</g>
		<g id="INSERT_20_">
			<g id="HATCH_9_">
				<polygon fill-rule="evenodd" clip-rule="evenodd" points="517.583,210.794 518.772,209.227 506.877,210.794 518.772,212.357 
					517.583,210.794 				"/>
			</g>
			<g id="LINE_75_">
				
					<line fill="none" stroke="#0000FF" stroke-width="0.4252" stroke-linecap="round" stroke-linejoin="round" stroke-miterlimit="10" stroke-dasharray="11.2787,5.6393" x1="506.877" y1="210.793" x2="521.151" y2="210.793"/>
			</g>
			<g id="LINE_76_">
				
					<line fill="none" stroke="#0000FF" stroke-width="0.4252" stroke-linecap="round" stroke-linejoin="round" stroke-miterlimit="10" stroke-dasharray="11.2787,5.6393" x1="506.877" y1="210.793" x2="518.772" y2="212.358"/>
			</g>
			<g id="LINE_77_">
				
					<line fill="none" stroke="#0000FF" stroke-width="0.4252" stroke-linecap="round" stroke-linejoin="round" stroke-miterlimit="10" stroke-dasharray="11.2787,5.6393" x1="518.772" y1="212.358" x2="517.583" y2="210.793"/>
			</g>
			<g id="LINE_78_">
				
					<line fill="none" stroke="#0000FF" stroke-width="0.4252" stroke-linecap="round" stroke-linejoin="round" stroke-miterlimit="10" stroke-dasharray="11.2787,5.6393" x1="517.583" y1="210.793" x2="518.772" y2="209.227"/>
			</g>
			<g id="LINE_79_">
				
					<line fill="none" stroke="#0000FF" stroke-width="0.4252" stroke-linecap="round" stroke-linejoin="round" stroke-miterlimit="10" stroke-dasharray="11.2787,5.6393" x1="518.772" y1="209.227" x2="506.877" y2="210.793"/>
			</g>
		</g>
	</g>
	<g id="INSERT_22_">
		<g id="HATCH_10_">
			<polygon fill-rule="evenodd" clip-rule="evenodd" fill="#FF0000" points="615.765,189.798 611.834,189.795 615.798,195.772 
				619.625,189.801 615.765,189.798 			"/>
		</g>
		<g id="LINE_80_">
			
				<line fill="none" stroke="#FF0000" stroke-width="1.7008" stroke-linecap="round" stroke-linejoin="round" stroke-miterlimit="10" x1="615.765" y1="184.313" x2="615.765" y2="189.797"/>
		</g>
		<g id="LINE_81_">
			
				<line fill="none" stroke="#FF0000" stroke-width="1.7008" stroke-linecap="round" stroke-linejoin="round" stroke-miterlimit="10" x1="615.76" y1="172.31" x2="615.76" y2="167.383"/>
		</g>
		<g id="LINE_82_">
			
				<line fill="none" stroke="#FF0000" stroke-width="1.7008" stroke-linecap="round" stroke-linejoin="round" stroke-miterlimit="10" x1="619.615" y1="172.312" x2="611.829" y2="172.308"/>
		</g>
		<g id="LINE_83_">
			
				<line fill="none" stroke="#FF0000" stroke-width="1.7008" stroke-linecap="round" stroke-linejoin="round" stroke-miterlimit="10" x1="611.829" y1="172.308" x2="619.793" y2="184.314"/>
		</g>
		<g id="LINE_84_">
			
				<line fill="none" stroke="#FF0000" stroke-width="1.7008" stroke-linecap="round" stroke-linejoin="round" stroke-miterlimit="10" x1="619.793" y1="184.314" x2="611.933" y2="184.311"/>
		</g>
		<g id="LINE_85_">
			
				<line fill="none" stroke="#FF0000" stroke-width="1.7008" stroke-linecap="round" stroke-linejoin="round" stroke-miterlimit="10" x1="611.933" y1="184.311" x2="619.617" y2="172.315"/>
		</g>
		<g id="LINE_86_">
			
				<line fill="none" stroke="#FF0000" stroke-width="1.7008" stroke-linecap="round" stroke-linejoin="round" stroke-miterlimit="10" x1="619.694" y1="189.799" x2="611.834" y2="189.795"/>
		</g>
		<g id="LINE_87_">
			
				<line fill="none" stroke="#FF0000" stroke-width="1.7008" stroke-linecap="round" stroke-linejoin="round" stroke-miterlimit="10" x1="611.834" y1="189.795" x2="615.798" y2="195.772"/>
		</g>
		<g id="LINE_88_">
			
				<line fill="none" stroke="#FF0000" stroke-width="1.7008" stroke-linecap="round" stroke-linejoin="round" stroke-miterlimit="10" x1="615.798" y1="195.772" x2="619.694" y2="189.69"/>
		</g>
		<g id="ARC_4_">
			
				<path fill="none" stroke="#FF0000" stroke-width="1.7008" stroke-linecap="round" stroke-linejoin="round" stroke-miterlimit="10" d="
				M619.617,172.315"/>
		</g>
	</g>
	<g id="INSERT_23_">
		<g id="HATCH_11_">
			<polygon fill-rule="evenodd" clip-rule="evenodd" fill="#FF0000" points="615.765,231.979 611.834,231.977 615.798,237.955 
				619.625,231.982 615.765,231.979 			"/>
		</g>
		<g id="LINE_89_">
			
				<line fill="none" stroke="#FF0000" stroke-width="1.7008" stroke-linecap="round" stroke-linejoin="round" stroke-miterlimit="10" x1="615.765" y1="226.494" x2="615.765" y2="231.979"/>
		</g>
		<g id="LINE_90_">
			
				<line fill="none" stroke="#FF0000" stroke-width="1.7008" stroke-linecap="round" stroke-linejoin="round" stroke-miterlimit="10" x1="615.76" y1="214.491" x2="615.76" y2="209.565"/>
		</g>
		<g id="LINE_91_">
			
				<line fill="none" stroke="#FF0000" stroke-width="1.7008" stroke-linecap="round" stroke-linejoin="round" stroke-miterlimit="10" x1="619.615" y1="214.493" x2="611.829" y2="214.489"/>
		</g>
		<g id="LINE_92_">
			
				<line fill="none" stroke="#FF0000" stroke-width="1.7008" stroke-linecap="round" stroke-linejoin="round" stroke-miterlimit="10" x1="611.829" y1="214.489" x2="619.793" y2="226.497"/>
		</g>
		<g id="LINE_93_">
			
				<line fill="none" stroke="#FF0000" stroke-width="1.7008" stroke-linecap="round" stroke-linejoin="round" stroke-miterlimit="10" x1="619.793" y1="226.497" x2="611.933" y2="226.492"/>
		</g>
		<g id="LINE_94_">
			
				<line fill="none" stroke="#FF0000" stroke-width="1.7008" stroke-linecap="round" stroke-linejoin="round" stroke-miterlimit="10" x1="611.933" y1="226.492" x2="619.617" y2="214.498"/>
		</g>
		<g id="LINE_95_">
			
				<line fill="none" stroke="#FF0000" stroke-width="1.7008" stroke-linecap="round" stroke-linejoin="round" stroke-miterlimit="10" x1="619.694" y1="231.981" x2="611.834" y2="231.978"/>
		</g>
		<g id="LINE_96_">
			
				<line fill="none" stroke="#FF0000" stroke-width="1.7008" stroke-linecap="round" stroke-linejoin="round" stroke-miterlimit="10" x1="611.834" y1="231.978" x2="615.798" y2="237.954"/>
		</g>
		<g id="LINE_97_">
			
				<line fill="none" stroke="#FF0000" stroke-width="1.7008" stroke-linecap="round" stroke-linejoin="round" stroke-miterlimit="10" x1="615.798" y1="237.954" x2="619.694" y2="231.872"/>
		</g>
		<g id="ARC_5_">
			
				<path fill="none" stroke="#FF0000" stroke-width="1.7008" stroke-linecap="round" stroke-linejoin="round" stroke-miterlimit="10" d="
				M619.617,214.498"/>
		</g>
	</g>
	<g id="MTEXT_8_">
		<text transform="matrix(0.9321 0 -0.2588 0.9659 561.3018 146.9849)" font-family="'ISOCPEUR'" font-size="10.7321">T3</text>
	</g>
	<g id="MTEXT_9_">
		<text transform="matrix(0.9321 0 -0.2588 0.9659 214.5781 146.9927)" font-family="'ISOCPEUR'" font-size="10.7321">T3</text>
	</g>
	<g id="INSERT_24_">
		<g id="LINE_98_">
			
				<line fill="none" stroke="#000000" stroke-width="0.5669" stroke-linecap="round" stroke-linejoin="round" stroke-miterlimit="10" x1="193.253" y1="106.573" x2="193.253" y2="150.452"/>
		</g>
		<g id="LINE_99_">
			
				<line fill="none" stroke="#000000" stroke-width="0.5669" stroke-linecap="round" stroke-linejoin="round" stroke-miterlimit="10" x1="193.253" y1="106.573" x2="126.626" y2="106.573"/>
		</g>
		<g id="MTEXT_10_">
			<text transform="matrix(0.9321 0 -0.2588 0.9659 131.688 101.5903)" font-family="'ISOCPEUR'" font-size="10.7321">Из тепловой</text>
		</g>
		<g id="MTEXT_11_">
			<text transform="matrix(0.9321 0 -0.2588 0.9659 148.2871 117.2896)" font-family="'ISOCPEUR'" font-size="10.7321">сети</text>
		</g>
	</g>
	<g id="INSERT_25_">
		<g id="LINE_100_">
			
				<line fill="none" stroke="#000000" stroke-width="0.5669" stroke-linecap="round" stroke-linejoin="round" stroke-miterlimit="10" x1="596.308" y1="106.914" x2="596.311" y2="150.452"/>
		</g>
		<g id="LINE_101_">
			
				<line fill="none" stroke="#000000" stroke-width="0.5669" stroke-linecap="round" stroke-linejoin="round" stroke-miterlimit="10" x1="596.308" y1="106.914" x2="653.423" y2="106.914"/>
		</g>
		<g id="MTEXT_12_">
			<text transform="matrix(0.9321 0 -0.2588 0.9659 601.3701 101.9302)" font-family="'ISOCPEUR'" font-size="10.7321">В систему</text>
		</g>
		<g id="MTEXT_13_">
			<text transform="matrix(0.9321 0 -0.2588 0.9659 615.6377 117.6304)" font-family="'ISOCPEUR'" font-size="10.7321">ГВС</text>
		</g>
	</g>
</g>
</svg>
