<?xml version="1.0" encoding="utf-8"?>
<!-- Generator: Adobe Illustrator 15.0.0, SVG Export Plug-In . SVG Version: 6.00 Build 0)  -->
<!DOCTYPE svg PUBLIC "-//W3C//DTD SVG 1.1//EN" "http://www.w3.org/Graphics/SVG/1.1/DTD/svg11.dtd">
<svg version="1.1" id="Слой_1" xmlns="http://www.w3.org/2000/svg" xmlns:xlink="http://www.w3.org/1999/xlink" x="0px" y="0px"
	 width="219px" height="31.75px" viewBox="20.639 31.812 219 31.75" enable-background="new 20.639 31.812 219 31.75"
	 xml:space="preserve">
<path fill="#0088CE" d="M39.476,55.213h-5.057l0.22-9.036c0.015-0.381-0.059-0.571-0.22-0.571c-0.087,0-0.278,0.249-0.571,0.747
	l-4.375,7.475c-0.616,1.041-1.723,1.561-3.32,1.561c-1.363,0-2.316-0.388-2.858-1.164c-0.381-0.558-0.572-1.398-0.572-2.529V39.824
	h5.057l-0.22,8.815v0.242c0,0.352,0.088,0.528,0.264,0.528c0.088,0,0.234-0.183,0.44-0.55l4.243-7.408
	c0.688-1.202,1.795-1.803,3.319-1.803c2.433,0,3.65,1.268,3.65,3.803V55.213L39.476,55.213z"/>
<polygon fill="#0088CE" points="58.405,55.213 53.436,55.213 53.436,49.101 47.852,49.101 47.852,55.213 42.884,55.213 
	42.884,39.824 47.852,39.824 47.852,45.276 53.436,45.276 53.436,39.824 58.405,39.824 "/>
<polygon fill="#0088CE" points="76.455,43.649 70.958,43.649 70.958,55.213 65.989,55.213 65.989,43.649 60.494,43.649 
	60.494,39.824 76.455,39.824 "/>
<path fill="#0088CE" d="M92.196,55.213H81.115c-0.82,0-1.443-0.176-1.868-0.527c-0.47-0.396-0.703-1.041-0.703-1.935V42.198
	c0-0.762,0.219-1.348,0.659-1.759c0.44-0.41,1.063-0.615,1.869-0.615H92.13v3.737h-7.607c-0.337,0-0.59,0.07-0.758,0.209
	c-0.169,0.139-0.253,0.392-0.253,0.758v1.165h8.398v3.342h-8.398v1.671c0,0.249,0.073,0.44,0.22,0.571
	c0.146,0.132,0.462,0.199,0.945,0.199h7.519V55.213z"/>
<path fill="#0088CE" d="M112.313,55.213h-5.276l-3.716-10.179c-0.117-0.249-0.197-0.374-0.242-0.374
	c-0.029,0-0.109,0.125-0.241,0.374l-3.716,10.179h-5.276l5.914-13.982c0.439-1.056,1.546-1.583,3.319-1.583
	c1.774,0,2.88,0.527,3.32,1.583L112.313,55.213z"/>
<path fill="#0088CE" d="M129.351,55.213h-4.968V44.528c0-0.381-0.074-0.644-0.22-0.791c-0.147-0.146-0.404-0.22-0.77-0.22h-3.473
	c-0.367,0-0.623,0.074-0.77,0.22c-0.146,0.147-0.22,0.41-0.22,0.791v10.685h-4.968V42.044c0-0.645,0.209-1.176,0.626-1.594
	c0.418-0.418,1.176-0.626,2.276-0.626h9.629c1.07,0,1.825,0.219,2.264,0.659c0.396,0.396,0.594,0.916,0.594,1.561V55.213
	L129.351,55.213z"/>
<path fill="#0088CE" d="M148.301,45.1c0,2.433-0.461,4.045-1.385,4.837c-0.646,0.557-1.547,0.834-2.704,0.834h-6.485v4.439h-4.969
	V42.726c0-0.938,0.205-1.642,0.615-2.111c0.47-0.527,1.15-0.791,2.045-0.791h8.509c1.479,0,2.558,0.359,3.231,1.077
	C147.92,41.722,148.301,43.121,148.301,45.1 M143.332,45.21c0-0.557-0.143-0.957-0.428-1.198c-0.287-0.242-0.811-0.363-1.572-0.363
	h-2.748c-0.571,0-0.857,0.301-0.857,0.901v2.397h3.561c0.851,0,1.404-0.135,1.66-0.407C143.203,46.269,143.332,45.825,143.332,45.21
	"/>
<path fill="#0088CE" d="M168.021,55.213h-5.058l0.222-9.036c0.014-0.381-0.06-0.571-0.222-0.571c-0.087,0-0.278,0.249-0.571,0.747
	l-4.375,7.475c-0.615,1.041-1.722,1.561-3.32,1.561c-1.362,0-2.315-0.388-2.856-1.164c-0.382-0.558-0.571-1.398-0.571-2.529V39.824
	h5.055l-0.219,8.815v0.242c0,0.352,0.088,0.528,0.264,0.528c0.088,0,0.234-0.183,0.439-0.55l4.243-7.408
	c0.688-1.202,1.795-1.803,3.32-1.803c2.432,0,3.649,1.268,3.649,3.803V55.213z"/>
<path fill="#0088CE" d="M186.906,50.311c0,1.73-0.285,2.968-0.857,3.716c-0.602,0.791-1.436,1.187-2.506,1.187h-9.959
	c-0.631,0-1.147-0.202-1.551-0.604c-0.402-0.401-0.604-0.92-0.604-1.551V42.286c0-1.641,0.799-2.462,2.397-2.462h12.179v3.825
	h-8.662c-0.425,0-0.688,0.07-0.791,0.209c-0.103,0.14-0.154,0.378-0.154,0.715v1.099h7.101c1.1,0,1.943,0.337,2.529,1.011
	C186.613,47.357,186.906,48.566,186.906,50.311 M181.806,50.156c0-0.425-0.114-0.722-0.341-0.89
	c-0.227-0.169-0.59-0.253-1.088-0.253h-3.979v1.363c0,0.483,0.089,0.784,0.265,0.901c0.102,0.074,0.365,0.108,0.791,0.108h2.924
	c0.557,0,0.934-0.092,1.132-0.274C181.707,50.93,181.806,50.61,181.806,50.156"/>
<path fill="#0088CE" d="M238.266,45.1c0,2.433-0.461,4.045-1.385,4.837c-0.645,0.557-1.546,0.834-2.703,0.834h-6.485v4.439h-4.97
	V42.726c0-0.938,0.205-1.642,0.617-2.111c0.469-0.527,1.149-0.791,2.043-0.791h8.51c1.479,0,2.557,0.359,3.23,1.077
	C237.885,41.722,238.266,43.121,238.266,45.1 M233.299,45.21c0-0.557-0.144-0.957-0.43-1.198c-0.286-0.242-0.811-0.363-1.572-0.363
	h-2.748c-0.57,0-0.856,0.301-0.856,0.901v2.397h3.562c0.85,0,1.403-0.135,1.659-0.407C233.169,46.269,233.299,45.825,233.299,45.21"
	/>
<path fill="#8DC63F" d="M204.807,35.949c6.379,0,11.568,5.19,11.568,11.568c0,6.379-5.189,11.569-11.568,11.569
	s-11.568-5.189-11.568-11.569C193.238,41.139,198.428,35.949,204.807,35.949 M204.806,32.129c-8.499,0-15.389,6.89-15.389,15.389
	c0,8.5,6.89,15.39,15.389,15.39s15.39-6.891,15.39-15.39C220.195,39.019,213.305,32.129,204.806,32.129"/>
<path fill="#8DC63F" d="M205.926,50.413c-0.595,0.678-1.63,1.524-2.188,1.903c-0.399,0.271-1.107,0.742-1.68,0.931
	c-0.348,0.116-0.939,0.329-1.621,0.269c-0.502-0.047-1.186-0.369-1.568-0.8c-0.575-0.644-0.814-1.391-0.922-1.989
	c-0.151-0.851-0.191-2.498-0.182-3.3c0.01-0.957,0.027-4.306,0.027-4.306h2.303l-0.027,4.12c0,0-0.01,1.224,0.02,1.631
	c0.033,0.472,0.028,1.113,0.156,1.568c0.021,0.078,0.113,0.589,0.382,0.759c0.483,0.305,2.797-1.354,3.726-2.489
	c0.549-0.67,1.1-1.577,1.436-2.174c0.163-0.289,0.314-0.635,0.449-1.008l2.25,0.451c-0.084,0.373-0.358,1.031-0.445,1.221
	C207.563,48.244,206.682,49.553,205.926,50.413"/>
<path fill="#8DC63F" d="M202.527,44.874c0,0,1.664-0.389,2.212-0.543c0.739-0.208,1.883-0.488,2.458-0.513
	c0.516-0.022,0.982,0.117,1.318,0.266c0.383,0.168,0.649,0.506,0.765,0.753c0.077,0.17,0.202,0.408,0.219,0.595
	c0.11,1.356,0.021,2.466-0.01,3.036c-0.032,0.579-0.116,1.276-0.179,1.854c-0.076,0.699-0.346,2.764-0.346,2.764l2.281,0.32
	c0,0,0.305-2.363,0.387-3.158c0.067-0.66,0.182-1.892,0.203-2.555c0.021-0.681,0.059-2.032-0.122-2.911
	c-0.102-0.494-0.495-1.264-0.806-1.661c-0.4-0.514-0.953-0.945-1.617-1.212c-0.602-0.243-1.512-0.426-2.158-0.394
	c-1.299,0.063-5.137,1.118-5.137,1.118L202.527,44.874z"/>
</svg>
